<?xml version="1.0" encoding="UTF-8" standalone="no"?>
<!DOCTYPE svg PUBLIC "-//W3C//DTD SVG 20010904//EN" "http://www.w3.org/TR/2001/REC-SVG-20010904/DTD/svg10.dtd">
<!-- Created with Inkscape (http://www.inkscape.org/) -->
<svg xmlns="http://www.w3.org/2000/svg" xmlns:inkscape="http://www.inkscape.org/namespaces/inkscape" xmlns:sodipodi="http://sodipodi.sourceforge.net/DTD/sodipodi-0.dtd" xmlns:xlink="http://www.w3.org/1999/xlink" xmlns:svg="http://www.w3.org/2000/svg" xmlns:dc="http://purl.org/dc/elements/1.1/" xmlns:cc="http://web.resource.org/cc/" xmlns:rdf="http://www.w3.org/1999/02/22-rdf-syntax-ns#" id="svg1" sodipodi:version="0.32" inkscape:version="0.38.1" width="120.00000pt" height="120.00000pt" sodipodi:docbase="/home/nicu/Desktop/new_smiley" sodipodi:docname="smiley109.svg">
  <defs id="defs3">
    <linearGradient id="linearGradient838">
      <stop style="stop-color:#ffffff;stop-opacity:0.50000000;" offset="0.0000000" id="stop839"/>
      <stop style="stop-color:#ffffff;stop-opacity:0.0000000;" offset="1.0000000" id="stop840"/>
    </linearGradient>
    <linearGradient id="linearGradient827">
      <stop style="stop-color:#ffffff;stop-opacity:1.0000000;" offset="0.0000000" id="stop828"/>
      <stop style="stop-color:#ffc613;stop-opacity:1.0000000;" offset="1.0000000" id="stop829"/>
    </linearGradient>
    <radialGradient xlink:href="#linearGradient827" id="radialGradient830" cx="0.44444445" cy="0.31250000" r="0.27970123" fx="0.44444445" fy="0.31250000"/>
    <linearGradient xlink:href="#linearGradient838" id="linearGradient837" x1="0.13281250" y1="0.11718750" x2="0.93750000" y2="0.94531250"/>
    <linearGradient xlink:href="#linearGradient838" id="linearGradient929" x1="0.28985506" y1="-0.050000001" x2="0.62318838" y2="0.68000001"/>
    <linearGradient xlink:href="#linearGradient838" id="linearGradient931" x1="0.19172932" y1="0.15625000" x2="0.54887217" y2="0.56250000"/>
  </defs>
  <sodipodi:namedview id="base" pagecolor="#ffffff" bordercolor="#666666" borderopacity="1.0" inkscape:pageopacity="0.0" inkscape:pageshadow="2" inkscape:zoom="1.0000000" inkscape:cx="66.155121" inkscape:cy="54.491211" inkscape:window-width="684" inkscape:window-height="663" inkscape:window-x="148" inkscape:window-y="40"/>
  <path style="fill:url(#radialGradient830);fill-rule:evenodd;stroke:black;stroke-opacity:1;stroke-width:2.5000000;stroke-linejoin:miter;stroke-linecap:butt;fill-opacity:1;stroke-dasharray:none;" d="M 119.87500 14.750000 L 105.78125 25.812500 C 97.758945 20.186884 88.037906 16.812500 77.500000 16.812500 C 66.522334 16.812500 56.482016 20.497365 48.281250 26.562500 L 34.218750 15.562500 L 36.281250 39.125000 C 31.174577 46.893007 28.156250 56.142148 28.156250 66.125000 C 28.156250 93.358402 50.251872 115.46875 77.500000 115.46875 C 104.74813 115.46875 126.87500 93.358403 126.87500 66.125000 C 126.87500 55.593461 123.50958 45.886111 117.87500 37.875000 L 119.87500 14.750000 z " id="path935"/>
  <g id="g841" transform="translate(-74.48908,36.10290)">
    <path transform="matrix(0.998802,0.000000,0.000000,1.070454,0.142038,-2.329516)" style="fill:#ffffff;fill-opacity:1.0000000;fill-rule:evenodd;stroke:#000000;stroke-width:2.4177773;stroke-dasharray:none;stroke-linejoin:round;" d="M 143.01477,21.387184 C 143.01477,27.488255 137.68806,32.439848 131.12479,32.439848 C 124.56151,32.439848 119.23480,27.488255 119.23480,21.387184 C 119.23480,15.286114 124.56151,10.334520 131.12479,10.334520 C 137.68806,10.334520 143.01477,15.286114 143.01477,21.387184 z " id="path832"/>
    <path transform="matrix(0.666452,0.000000,0.000000,0.731790,43.86252,2.256431)" style="fill:#0000ff;fill-rule:evenodd;stroke-width:1.0000000pt;" d="M 140.33534,24.903942 C 140.33534,29.618406 136.13399,33.444637 130.95732,33.444637 C 125.78066,33.444637 121.57930,29.618406 121.57930,24.903942 C 121.57930,20.189478 125.78066,16.363247 130.95732,16.363247 C 136.13399,16.363247 140.33534,20.189478 140.33534,24.903942 z " id="path834"/>
    <path style="fill:#000000;fill-rule:evenodd;stroke-width:1.0000000pt;fill-opacity:1.0000000;" d="M 134.88675,20.537890 C 134.88675,22.607890 133.20675,24.287890 131.13675,24.287890 C 129.06675,24.287890 127.38675,22.607890 127.38675,20.537890 C 127.38675,18.467890 129.06675,16.787890 131.13675,16.787890 C 133.20675,16.787890 134.88675,18.467890 134.88675,20.537890 z " id="path835"/>
    <path style="fill:url(#linearGradient837);fill-rule:evenodd;stroke-width:1.0000000pt;" d="M 135.37718,19.287889 C 135.37718,22.047889 133.13718,24.287889 130.37718,24.287889 C 127.61718,24.287889 125.37718,22.047889 125.37718,19.287889 C 125.37718,16.527888 127.61718,14.287889 130.37718,14.287889 C 133.13718,14.287889 135.37718,16.527888 135.37718,19.287889 z " id="path836"/>
  </g>
  <g id="g846" transform="translate(-34.44999,34.91603)">
    <path transform="matrix(0.998802,0.000000,0.000000,1.070454,0.142038,-2.329516)" style="fill:#ffffff;fill-opacity:1.0000000;fill-rule:evenodd;stroke:#000000;stroke-width:2.4177773;stroke-dasharray:none;stroke-linejoin:round;" d="M 143.01477,21.387184 C 143.01477,27.488255 137.68806,32.439848 131.12479,32.439848 C 124.56151,32.439848 119.23480,27.488255 119.23480,21.387184 C 119.23480,15.286114 124.56151,10.334520 131.12479,10.334520 C 137.68806,10.334520 143.01477,15.286114 143.01477,21.387184 z " id="path847"/>
    <path transform="matrix(0.666452,0.000000,0.000000,0.731790,43.86252,2.256431)" style="fill:#0000ff;fill-rule:evenodd;stroke-width:1.0000000pt;" d="M 140.33534,24.903942 C 140.33534,29.618406 136.13399,33.444637 130.95732,33.444637 C 125.78066,33.444637 121.57930,29.618406 121.57930,24.903942 C 121.57930,20.189478 125.78066,16.363247 130.95732,16.363247 C 136.13399,16.363247 140.33534,20.189478 140.33534,24.903942 z " id="path848"/>
    <path style="fill:#000000;fill-rule:evenodd;stroke-width:1.0000000pt;fill-opacity:1.0000000;" d="M 134.88675,20.537890 C 134.88675,22.607890 133.20675,24.287890 131.13675,24.287890 C 129.06675,24.287890 127.38675,22.607890 127.38675,20.537890 C 127.38675,18.467890 129.06675,16.787890 131.13675,16.787890 C 133.20675,16.787890 134.88675,18.467890 134.88675,20.537890 z " id="path849"/>
    <path style="fill:url(#linearGradient837);fill-rule:evenodd;stroke-width:1.0000000pt;" d="M 135.37718,19.287889 C 135.37718,22.047889 133.13718,24.287889 130.37718,24.287889 C 127.61718,24.287889 125.37718,22.047889 125.37718,19.287889 C 125.37718,16.527888 127.61718,14.287889 130.37718,14.287889 C 133.13718,14.287889 135.37718,16.527888 135.37718,19.287889 z " id="path850"/>
  </g>
  <path style="fill:none;fill-rule:evenodd;stroke:black;stroke-opacity:1;stroke-width:2.5000000;stroke-linejoin:miter;stroke-linecap:butt;fill-opacity:0.75;stroke-dasharray:none;" d="M 49.939417,87.244273 C 50.989029,88.791070 52.549635,90.137611 54.492625,91.279582 C 55.464120,91.850567 56.575307,100.29649 57.537792,101.53200 C 58.706450,99.674925 60.138752,93.493864 61.340133,94.087466 C 69.073605,97.702403 87.090656,96.631087 96.239718,92.526858 C 97.481210,91.941953 99.104149,99.008005 100.03589,100.05773 C 100.96763,97.396342 102.03287,89.543320 102.98364,88.809196 C 104.88520,87.340948 106.39747,85.642234 107.39184,83.708739" id="path851" sodipodi:nodetypes="cccsccsc"/>
  <rdf:RDF xmlns="http://web.resource.org/cc/" xmlns:dc="http://purl.org/dc/elements/1.1/" xmlns:rdf="http://www.w3.org/1999/02/22-rdf-syntax-ns#">
    <Work rdf:about="">
      <dc:title>Clipart by Nicu Buculei - smiley111</dc:title>
      <dc:rights>
        <Agent>
          <dc:title>Nicu Buculei</dc:title>
        </Agent>
      </dc:rights>
      <dc:type rdf:resource="http://purl.org/dc/dcmitype/StillImage"/>
      <license rdf:resource="http://web.resource.org/cc/PublicDomain"/>
    </Work>
    <License rdf:about="http://web.resource.org/cc/PublicDomain">
      <permits rdf:resource="http://web.resource.org/cc/Reproduction"/>
      <permits rdf:resource="http://web.resource.org/cc/Distribution"/>
      <permits rdf:resource="http://web.resource.org/cc/DerivativeWorks"/>
    </License>
  </rdf:RDF>
  <metadata>
    <rdf:RDF>
      <cc:Work>
        <dc:format>image/svg+xml</dc:format>
        <dc:type rdf:resource="http://purl.org/dc/dcmitype/StillImage"/>
        <cc:license rdf:resource="http://creativecommons.org/licenses/publicdomain/"/>
        <dc:publisher>
          <cc:Agent rdf:about="http://openclipart.org/">
            <dc:title>Open Clip Art Library</dc:title>
          </cc:Agent>
        </dc:publisher>
        <dc:title>Emoticons: Devil face</dc:title>
        <dc:date>2009-03-17T13:01:13</dc:date>
        <dc:description>Devil face</dc:description>
        <dc:source>http://openclipart.org/detail/22402/emoticons:-devil-face-by-nicubunu</dc:source>
        <dc:creator>
          <cc:Agent>
            <dc:title>nicubunu</dc:title>
          </cc:Agent>
        </dc:creator>
        <dc:subject>
          <rdf:Bag>
            <rdf:li>media</rdf:li>
            <rdf:li>clip art</rdf:li>
            <rdf:li>public domain</rdf:li>
            <rdf:li>image</rdf:li>
            <rdf:li>png</rdf:li>
            <rdf:li>svg</rdf:li>
            <rdf:li>smiley</rdf:li>
            <rdf:li>face</rdf:li>
            <rdf:li>emoticon</rdf:li>
            <rdf:li>emote</rdf:li>
            <rdf:li>devil</rdf:li>
            <rdf:li>demon</rdf:li>
            <rdf:li>teeth</rdf:li>
            <rdf:li>horns</rdf:li>
            <rdf:li>smiley</rdf:li>
            <rdf:li>face</rdf:li>
            <rdf:li>emoticon</rdf:li>
            <rdf:li>emote</rdf:li>
            <rdf:li>devil</rdf:li>
            <rdf:li>demon</rdf:li>
            <rdf:li>teeth</rdf:li>
            <rdf:li>horns</rdf:li>
          </rdf:Bag>
        </dc:subject>
      </cc:Work>
      <cc:License rdf:about="http://creativecommons.org/licenses/publicdomain/">
        <cc:permits rdf:resource="http://creativecommons.org/ns#Reproduction"/>
        <cc:permits rdf:resource="http://creativecommons.org/ns#Distribution"/>
        <cc:permits rdf:resource="http://creativecommons.org/ns#DerivativeWorks"/>
      </cc:License>
    </rdf:RDF>
  </metadata>
</svg>
