<?xml version="1.0" encoding="UTF-8" standalone="no"?>
<!DOCTYPE svg PUBLIC "-//W3C//DTD SVG 20010904//EN" "http://www.w3.org/TR/2001/REC-SVG-20010904/DTD/svg10.dtd">
<!-- Created with Inkscape (http://www.inkscape.org/) -->
<svg xmlns="http://www.w3.org/2000/svg" xmlns:inkscape="http://www.inkscape.org/namespaces/inkscape" xmlns:sodipodi="http://sodipodi.sourceforge.net/DTD/sodipodi-0.dtd" xmlns:xlink="http://www.w3.org/1999/xlink" xmlns:svg="http://www.w3.org/2000/svg" xmlns:dc="http://purl.org/dc/elements/1.1/" xmlns:cc="http://web.resource.org/cc/" xmlns:rdf="http://www.w3.org/1999/02/22-rdf-syntax-ns#" id="svg1" sodipodi:version="0.32" inkscape:version="0.38.1" width="120.00000pt" height="120.00000pt" sodipodi:docbase="/home/nicu/Desktop/new_smileys" sodipodi:docname="smiley111.svg">
  <defs id="defs3">
    <linearGradient id="linearGradient838">
      <stop style="stop-color:#ffffff;stop-opacity:0.50000000;" offset="0.0000000" id="stop839"/>
      <stop style="stop-color:#ffffff;stop-opacity:0.0000000;" offset="1.0000000" id="stop840"/>
    </linearGradient>
    <linearGradient id="linearGradient827">
      <stop style="stop-color:#ffffff;stop-opacity:1.0000000;" offset="0.0000000" id="stop828"/>
      <stop style="stop-color:#cc8ed3;stop-opacity:1.0000000;" offset="1.0000000" id="stop829"/>
    </linearGradient>
    <radialGradient xlink:href="#linearGradient827" id="radialGradient830" cx="0.43843809" cy="0.24228731" r="0.39870128" fx="0.44613335" fy="0.25009677"/>
    <linearGradient xlink:href="#linearGradient838" id="linearGradient837" x1="0.13281250" y1="0.11718750" x2="0.93750000" y2="0.94531250"/>
  </defs>
  <sodipodi:namedview id="base" pagecolor="#ffffff" bordercolor="#666666" borderopacity="1.0" inkscape:pageopacity="0.0" inkscape:pageshadow="2" inkscape:zoom="3.4822023" inkscape:cx="66.155128" inkscape:cy="61.088751" inkscape:window-width="684" inkscape:window-height="663" inkscape:window-x="345" inkscape:window-y="48"/>
  <path transform="matrix(1.019945,0.000000,0.000000,1.052160,-6.697623,-9.933914)" style="fill:url(#radialGradient830);fill-opacity:1;fill-rule:evenodd;stroke:#000000;stroke-width:2.4132968;stroke-dasharray:none;stroke-linejoin:round;" d="M 130.95732,72.296425 C 130.95732,98.179753 109.27534,119.18651 82.560051,119.18651 C 55.844758,119.18651 34.162781,98.179753 34.162781,72.296425 C 34.162781,46.413097 55.844758,25.406338 82.560051,25.406338 C 109.27534,25.406338 130.95732,46.413097 130.95732,72.296425 z " id="path826"/>
  <g id="g841" transform="translate(-74.48908,36.10290)">
    <path transform="matrix(0.998802,0.000000,0.000000,1.070454,0.142038,-2.329516)" style="fill:#ffffff;fill-opacity:1.0000000;fill-rule:evenodd;stroke:#000000;stroke-width:2.4177773;stroke-dasharray:none;stroke-linejoin:round;" d="M 143.01477,21.387184 C 143.01477,27.488255 137.68806,32.439848 131.12479,32.439848 C 124.56151,32.439848 118.51600,26.146887 118.51600,20.045816 C 118.51600,13.944746 120.60812,12.011230 127.17140,12.011230 C 133.73467,12.011230 143.01477,15.286114 143.01477,21.387184 z " id="path832" sodipodi:nodetypes="ccccc"/>
    <path transform="matrix(0.666452,0.000000,0.000000,0.731790,43.86252,2.256431)" style="fill:#0000ff;fill-rule:evenodd;stroke-width:1.0000000pt;" d="M 140.33534,24.903942 C 140.33534,29.618406 136.13399,33.444637 130.95732,33.444637 C 125.78066,33.444637 121.57930,29.618406 121.57930,24.903942 C 121.57930,20.189478 125.78066,16.363247 130.95732,16.363247 C 136.13399,16.363247 140.33534,20.189478 140.33534,24.903942 z " id="path834"/>
    <path style="fill:#000000;fill-rule:evenodd;stroke-width:1.0000000pt;fill-opacity:1.0000000;" d="M 134.88675,20.537890 C 134.88675,22.607890 133.20675,24.287890 131.13675,24.287890 C 129.06675,24.287890 127.38675,22.607890 127.38675,20.537890 C 127.38675,18.467890 129.06675,16.787890 131.13675,16.787890 C 133.20675,16.787890 134.88675,18.467890 134.88675,20.537890 z " id="path835"/>
    <path style="fill:url(#linearGradient837);fill-rule:evenodd;stroke-width:1.0000000pt;" d="M 135.37718,19.287889 C 135.37718,22.047889 133.13718,24.287889 130.37718,24.287889 C 127.61718,24.287889 125.37718,22.047889 125.37718,19.287889 C 125.37718,16.527888 127.61718,14.287889 130.37718,14.287889 C 133.13718,14.287889 135.37718,16.527888 135.37718,19.287889 z " id="path836"/>
  </g>
  <g id="g846" transform="translate(-34.44999,34.91603)">
    <path transform="matrix(0.998802,0.000000,0.000000,1.070454,0.142038,-2.329516)" style="fill:#ffffff;fill-opacity:1.0000000;fill-rule:evenodd;stroke:#000000;stroke-width:2.4177773;stroke-dasharray:none;stroke-linejoin:round;" d="M 143.73357,21.051842 C 143.73357,27.152913 137.68806,32.439848 131.12479,32.439848 C 124.56151,32.439848 119.23480,27.488255 119.23480,21.387184 C 119.23480,15.286114 129.95249,11.675888 136.51577,11.675888 C 143.07904,11.675888 143.73357,14.950772 143.73357,21.051842 z " id="path847" sodipodi:nodetypes="ccccc"/>
    <path transform="matrix(0.666452,0.000000,0.000000,0.731790,43.86252,2.256431)" style="fill:#0000ff;fill-rule:evenodd;stroke-width:1.0000000pt;" d="M 140.33534,24.903942 C 140.33534,29.618406 136.13399,33.444637 130.95732,33.444637 C 125.78066,33.444637 121.57930,29.618406 121.57930,24.903942 C 121.57930,20.189478 125.78066,16.363247 130.95732,16.363247 C 136.13399,16.363247 140.33534,20.189478 140.33534,24.903942 z " id="path848"/>
    <path style="fill:#000000;fill-rule:evenodd;stroke-width:1.0000000pt;fill-opacity:1.0000000;" d="M 134.88675,20.537890 C 134.88675,22.607890 133.20675,24.287890 131.13675,24.287890 C 129.06675,24.287890 127.38675,22.607890 127.38675,20.537890 C 127.38675,18.467890 129.06675,16.787890 131.13675,16.787890 C 133.20675,16.787890 134.88675,18.467890 134.88675,20.537890 z " id="path849"/>
    <path style="fill:url(#linearGradient837);fill-rule:evenodd;stroke-width:1.0000000pt;" d="M 135.37718,19.287889 C 135.37718,22.047889 133.13718,24.287889 130.37718,24.287889 C 127.61718,24.287889 125.37718,22.047889 125.37718,19.287889 C 125.37718,16.527888 127.61718,14.287889 130.37718,14.287889 C 133.13718,14.287889 135.37718,16.527888 135.37718,19.287889 z " id="path850"/>
  </g>
  <path style="fill:none;fill-opacity:0.75000000;fill-rule:evenodd;stroke:#000000;stroke-width:2.5000000;stroke-linejoin:round;stroke-dasharray:none;" d="M 63.109459,87.544193 C 67.224077,84.093182 85.760831,83.771125 93.986358,86.651974" id="path851" sodipodi:nodetypes="cc"/>
  <rdf:RDF xmlns="http://web.resource.org/cc/" xmlns:dc="http://purl.org/dc/elements/1.1/" xmlns:rdf="http://www.w3.org/1999/02/22-rdf-syntax-ns#">
    <Work rdf:about="">
      <dc:title>Clipart by Nicu Buculei - smiley111</dc:title>
      <dc:rights>
        <Agent>
          <dc:title>Nicu Buculei</dc:title>
        </Agent>
      </dc:rights>
      <dc:type rdf:resource="http://purl.org/dc/dcmitype/StillImage"/>
      <license rdf:resource="http://web.resource.org/cc/PublicDomain"/>
    </Work>
    <License rdf:about="http://web.resource.org/cc/PublicDomain">
      <permits rdf:resource="http://web.resource.org/cc/Reproduction"/>
      <permits rdf:resource="http://web.resource.org/cc/Distribution"/>
      <permits rdf:resource="http://web.resource.org/cc/DerivativeWorks"/>
    </License>
  </rdf:RDF>
  <metadata>
    <rdf:RDF>
      <cc:Work>
        <dc:format>image/svg+xml</dc:format>
        <dc:type rdf:resource="http://purl.org/dc/dcmitype/StillImage"/>
        <cc:license rdf:resource="http://creativecommons.org/licenses/publicdomain/"/>
        <dc:publisher>
          <cc:Agent rdf:about="http://openclipart.org/">
            <dc:title>Open Clip Art Library</dc:title>
          </cc:Agent>
        </dc:publisher>
        <dc:title>Emoticons: Evil face</dc:title>
        <dc:date>2009-03-17T13:09:20</dc:date>
        <dc:description>evil face</dc:description>
        <dc:source>http://openclipart.org/detail/22406/emoticons:-evil-face-by-nicubunu</dc:source>
        <dc:creator>
          <cc:Agent>
            <dc:title>nicubunu</dc:title>
          </cc:Agent>
        </dc:creator>
        <dc:subject>
          <rdf:Bag>
            <rdf:li>media</rdf:li>
            <rdf:li>clip art</rdf:li>
            <rdf:li>public domain</rdf:li>
            <rdf:li>image</rdf:li>
            <rdf:li>png</rdf:li>
            <rdf:li>svg</rdf:li>
            <rdf:li>smiley</rdf:li>
            <rdf:li>face</rdf:li>
            <rdf:li>emoticon</rdf:li>
            <rdf:li>emote</rdf:li>
            <rdf:li>purple</rdf:li>
            <rdf:li>angry</rdf:li>
            <rdf:li>evil</rdf:li>
            <rdf:li>smiley</rdf:li>
            <rdf:li>face</rdf:li>
            <rdf:li>emoticon</rdf:li>
            <rdf:li>emote</rdf:li>
            <rdf:li>purple</rdf:li>
            <rdf:li>angry</rdf:li>
            <rdf:li>evil</rdf:li>
          </rdf:Bag>
        </dc:subject>
      </cc:Work>
      <cc:License rdf:about="http://creativecommons.org/licenses/publicdomain/">
        <cc:permits rdf:resource="http://creativecommons.org/ns#Reproduction"/>
        <cc:permits rdf:resource="http://creativecommons.org/ns#Distribution"/>
        <cc:permits rdf:resource="http://creativecommons.org/ns#DerivativeWorks"/>
      </cc:License>
    </rdf:RDF>
  </metadata>
</svg>
